<?xml version="1.0" standalone="no"?>
<!DOCTYPE svg PUBLIC "-//W3C//DTD SVG 20010904//EN"
 "http://www.w3.org/TR/2001/REC-SVG-20010904/DTD/svg10.dtd">
<svg version="1.0" xmlns="http://www.w3.org/2000/svg"
 width="139.000000pt" height="114.000000pt" viewBox="0 0 139.000000 114.000000"
 preserveAspectRatio="xMidYMid meet">

<g transform="translate(0.000000,114.000000) scale(0.100000,-0.100000)"
fill="#000000" stroke="none">
<path d="M272 988 c-7 -7 -12 -27 -12 -45 0 -29 3 -33 25 -33 22 0 25 4 25 34
0 39 -20 62 -38 44z"/>
<path d="M472 988 c-7 -7 -12 -27 -12 -45 0 -29 3 -33 25 -33 22 0 25 4 25 34
0 39 -20 62 -38 44z"/>
<path d="M170 700 c0 -187 1 -200 19 -210 11 -5 77 -10 146 -10 115 0 126 2
123 18 -3 15 -19 17 -131 20 l-127 3 0 139 0 140 185 0 185 0 0 -51 c0 -45 2
-50 15 -39 11 9 15 35 15 101 l0 89 -44 0 c-41 0 -45 -2 -48 -27 -2 -20 -9
-28 -23 -28 -14 0 -21 8 -23 28 -3 27 -4 27 -77 27 -73 0 -74 0 -77 -27 -2
-20 -9 -28 -23 -28 -14 0 -21 8 -23 28 -3 25 -7 27 -48 27 l-44 0 0 -200z"/>
<path d="M642 684 c-84 -75 -152 -139 -152 -143 0 -11 35 -41 47 -41 6 0 17 7
24 16 12 14 14 14 20 -3 4 -10 8 -89 8 -175 l1 -158 40 0 40 0 0 95 0 95 45 0
45 0 0 -95 0 -95 120 0 120 0 0 110 c0 103 1 110 20 110 17 0 20 -7 20 -41 0
-43 10 -55 129 -155 l34 -28 64 69 c34 38 63 72 63 76 0 3 -36 39 -81 78 -52
46 -87 70 -97 67 -10 -3 -36 -10 -59 -16 -26 -6 -43 -17 -43 -25 0 -16 -9 -18
-34 -9 -12 5 -16 20 -16 62 l0 55 23 -21 23 -22 25 26 24 26 -55 50 c-30 28
-98 91 -151 139 l-96 88 -151 -135z m118 -190 l0 -45 -42 3 c-43 3 -43 3 -46
46 l-3 42 45 0 46 0 0 -46z m150 0 l0 -45 -42 3 c-43 3 -43 3 -46 46 l-3 42
45 0 46 0 0 -46z m323 -117 c31 -28 57 -53 57 -58 0 -4 -19 -29 -43 -55 -49
-54 -45 -55 -131 24 -31 28 -46 51 -46 67 0 26 25 36 32 13 6 -16 38 -2 38 17
0 10 -10 15 -30 15 -38 0 -39 18 -2 26 15 3 32 7 37 9 14 3 22 -2 88 -58z"/>
<path d="M317 773 c-4 -3 -7 -17 -7 -30 0 -19 5 -23 30 -23 27 0 30 3 30 30 0
25 -4 30 -23 30 -13 0 -27 -3 -30 -7z"/>
<path d="M400 750 c0 -27 3 -30 30 -30 27 0 30 3 30 30 0 27 -3 30 -30 30 -27
0 -30 -3 -30 -30z"/>
<path d="M490 750 c0 -25 4 -30 25 -30 21 0 25 5 25 30 0 25 -4 30 -25 30 -21
0 -25 -5 -25 -30z"/>
<path d="M230 660 c0 -25 4 -30 25 -30 21 0 25 5 25 30 0 25 -4 30 -25 30 -21
0 -25 -5 -25 -30z"/>
<path d="M312 663 c2 -22 9 -29 31 -31 24 -3 27 0 27 27 0 28 -3 31 -31 31
-27 0 -30 -3 -27 -27z"/>
<path d="M400 659 c0 -27 3 -30 28 -27 21 2 28 9 30 31 3 24 0 27 -27 27 -28
0 -31 -3 -31 -31z"/>
<path d="M490 660 c0 -25 4 -30 25 -30 21 0 25 5 25 30 0 25 -4 30 -25 30 -21
0 -25 -5 -25 -30z"/>
<path d="M230 575 c0 -20 5 -25 25 -25 20 0 25 5 25 25 0 20 -5 25 -25 25 -20
0 -25 -5 -25 -25z"/>
<path d="M310 575 c0 -21 5 -25 30 -25 25 0 30 4 30 25 0 21 -5 25 -30 25 -25
0 -30 -4 -30 -25z"/>
<path d="M400 575 c0 -21 5 -25 30 -25 25 0 30 4 30 25 0 21 -5 25 -30 25 -25
0 -30 -4 -30 -25z"/>
</g>
</svg>
